<svg width="85" height="85" viewBox="0 0 85 85" fill="none" xmlns="http://www.w3.org/2000/svg">
<g opacity="0.7">
<circle cx="42.5" cy="42.5" r="42.5" fill="#D2B48C"/>
</g>
<path d="M39.7419 41.24V40.493H41.4339V47H40.6059V41.24H39.7419ZM42.7417 46.343C43.5037 45.731 44.1007 45.23 44.5327 44.84C44.9647 44.444 45.3277 44.033 45.6217 43.607C45.9217 43.175 46.0717 42.752 46.0717 42.338C46.0717 41.948 45.9757 41.642 45.7837 41.42C45.5977 41.192 45.2947 41.078 44.8747 41.078C44.4667 41.078 44.1487 41.207 43.9207 41.465C43.6987 41.717 43.5787 42.056 43.5607 42.482H42.7687C42.7927 41.81 42.9967 41.291 43.3807 40.925C43.7647 40.559 44.2597 40.376 44.8657 40.376C45.4837 40.376 45.9727 40.547 46.3327 40.889C46.6987 41.231 46.8817 41.702 46.8817 42.302C46.8817 42.8 46.7317 43.286 46.4317 43.76C46.1377 44.228 45.8017 44.642 45.4237 45.002C45.0457 45.356 44.5627 45.77 43.9747 46.244H47.0707V46.928H42.7417V46.343Z" fill="#964B00"/>
<path d="M36.852 50.227V54.862C36.852 55.378 36.693 55.792 36.375 56.104C36.057 56.41 35.637 56.563 35.115 56.563C34.587 56.563 34.164 56.407 33.846 56.095C33.528 55.777 33.369 55.345 33.369 54.799H34.188C34.194 55.105 34.272 55.354 34.422 55.546C34.578 55.738 34.809 55.834 35.115 55.834C35.421 55.834 35.649 55.744 35.799 55.564C35.949 55.378 36.024 55.144 36.024 54.862V50.227H36.852ZM39.2665 50.227V54.196C39.2665 54.754 39.4015 55.168 39.6715 55.438C39.9475 55.708 40.3285 55.843 40.8145 55.843C41.2945 55.843 41.6695 55.708 41.9395 55.438C42.2155 55.168 42.3535 54.754 42.3535 54.196V50.227H43.1725V54.187C43.1725 54.709 43.0675 55.15 42.8575 55.51C42.6475 55.864 42.3625 56.128 42.0025 56.302C41.6485 56.476 41.2495 56.563 40.8055 56.563C40.3615 56.563 39.9595 56.476 39.5995 56.302C39.2455 56.128 38.9635 55.864 38.7535 55.51C38.5495 55.15 38.4475 54.709 38.4475 54.187V50.227H39.2665ZM49.4707 56.5H48.6517L45.3577 51.505V56.5H44.5387V50.218H45.3577L48.6517 55.204V50.218H49.4707V56.5ZM51.6858 50.893V52.99H53.9718V53.665H51.6858V55.825H54.2418V56.5H50.8668V50.218H54.2418V50.893H51.6858Z" fill="#964B00"/>
<path d="M56.7 30.1818H55.05V27H51.75V30.1818H35.25V27H31.95V30.1818H30.3C28.485 30.1818 27 31.6136 27 33.3636V58.8182C27 60.5682 28.485 62 30.3 62H56.7C58.515 62 60 60.5682 60 58.8182V33.3636C60 31.6136 58.515 30.1818 56.7 30.1818ZM56.7 58.8182H30.3V38.1364H56.7V58.8182Z" fill="white"/>
</svg>
