<svg width="85" height="85" viewBox="0 0 85 85" fill="none" xmlns="http://www.w3.org/2000/svg">
<g opacity="0.7">
<circle cx="42.5" cy="42.5" r="42.5" fill="#D2B48C"/>
<path d="M47.426 35.812L38.2 45.038L33.174 40.026L31.2 42L38.2 49L49.4 37.8L47.426 35.812ZM41 28C33.272 28 27 34.272 27 42C27 49.728 33.272 56 41 56C48.728 56 55 49.728 55 42C55 34.272 48.728 28 41 28ZM41 53.2C34.812 53.2 29.8 48.188 29.8 42C29.8 35.812 34.812 30.8 41 30.8C47.188 30.8 52.2 35.812 52.2 42C52.2 48.188 47.188 53.2 41 53.2Z" fill="white"/>
</g>
</svg>
