<svg width="358" height="67" viewBox="0 0 358 67" fill="none" xmlns="http://www.w3.org/2000/svg">
<rect width="358" height="67" rx="2" fill="#D2B48C"/>
<path d="M95.82 26.09C98.1 26.09 100.07 26.52 101.73 27.38C103.41 28.22 104.69 29.43 105.57 31.01C106.47 32.59 106.92 34.45 106.92 36.59C106.92 38.73 106.47 40.59 105.57 42.17C104.69 43.73 103.41 44.93 101.73 45.77C100.07 46.59 98.1 47 95.82 47H89.31V26.09H95.82ZM95.82 44.75C98.52 44.75 100.58 44.04 102 42.62C103.42 41.18 104.13 39.17 104.13 36.59C104.13 33.99 103.41 31.96 101.97 30.5C100.55 29.04 98.5 28.31 95.82 28.31H92.04V44.75H95.82ZM117.691 47.27C116.151 47.27 114.751 46.92 113.491 46.22C112.251 45.52 111.271 44.53 110.551 43.25C109.851 41.95 109.501 40.45 109.501 38.75C109.501 37.07 109.861 35.59 110.581 34.31C111.321 33.01 112.321 32.02 113.581 31.34C114.841 30.64 116.251 30.29 117.811 30.29C119.371 30.29 120.781 30.64 122.041 31.34C123.301 32.02 124.291 33 125.011 34.28C125.751 35.56 126.121 37.05 126.121 38.75C126.121 40.45 125.741 41.95 124.981 43.25C124.241 44.53 123.231 45.52 121.951 46.22C120.671 46.92 119.251 47.27 117.691 47.27ZM117.691 44.87C118.671 44.87 119.591 44.64 120.451 44.18C121.311 43.72 122.001 43.03 122.521 42.11C123.061 41.19 123.331 40.07 123.331 38.75C123.331 37.43 123.071 36.31 122.551 35.39C122.031 34.47 121.351 33.79 120.511 33.35C119.671 32.89 118.761 32.66 117.781 32.66C116.781 32.66 115.861 32.89 115.021 33.35C114.201 33.79 113.541 34.47 113.041 35.39C112.541 36.31 112.291 37.43 112.291 38.75C112.291 40.09 112.531 41.22 113.011 42.14C113.511 43.06 114.171 43.75 114.991 44.21C115.811 44.65 116.711 44.87 117.691 44.87ZM151.61 30.56L146.48 47H143.66L139.7 33.95L135.74 47H132.92L127.76 30.56H130.55L134.33 44.36L138.41 30.56H141.2L145.19 44.39L148.91 30.56H151.61ZM162.33 30.26C164.33 30.26 165.95 30.87 167.19 32.09C168.43 33.29 169.05 35.03 169.05 37.31V47H166.35V37.7C166.35 36.06 165.94 34.81 165.12 33.95C164.3 33.07 163.18 32.63 161.76 32.63C160.32 32.63 159.17 33.08 158.31 33.98C157.47 34.88 157.05 36.19 157.05 37.91V47H154.32V30.56H157.05V32.9C157.59 32.06 158.32 31.41 159.24 30.95C160.18 30.49 161.21 30.26 162.33 30.26ZM176.239 24.8V47H173.509V24.8H176.239ZM188.062 47.27C186.522 47.27 185.122 46.92 183.862 46.22C182.622 45.52 181.642 44.53 180.922 43.25C180.222 41.95 179.872 40.45 179.872 38.75C179.872 37.07 180.232 35.59 180.952 34.31C181.692 33.01 182.692 32.02 183.952 31.34C185.212 30.64 186.622 30.29 188.182 30.29C189.742 30.29 191.152 30.64 192.412 31.34C193.672 32.02 194.662 33 195.382 34.28C196.122 35.56 196.492 37.05 196.492 38.75C196.492 40.45 196.112 41.95 195.352 43.25C194.612 44.53 193.602 45.52 192.322 46.22C191.042 46.92 189.622 47.27 188.062 47.27ZM188.062 44.87C189.042 44.87 189.962 44.64 190.822 44.18C191.682 43.72 192.372 43.03 192.892 42.11C193.432 41.19 193.702 40.07 193.702 38.75C193.702 37.43 193.442 36.31 192.922 35.39C192.402 34.47 191.722 33.79 190.882 33.35C190.042 32.89 189.132 32.66 188.152 32.66C187.152 32.66 186.232 32.89 185.392 33.35C184.572 33.79 183.912 34.47 183.412 35.39C182.912 36.31 182.662 37.43 182.662 38.75C182.662 40.09 182.902 41.22 183.382 42.14C183.882 43.06 184.542 43.75 185.362 44.21C186.182 44.65 187.082 44.87 188.062 44.87ZM199.061 38.72C199.061 37.04 199.401 35.57 200.081 34.31C200.761 33.03 201.691 32.04 202.871 31.34C204.071 30.64 205.401 30.29 206.861 30.29C208.301 30.29 209.551 30.6 210.611 31.22C211.671 31.84 212.461 32.62 212.981 33.56V30.56H215.741V47H212.981V43.94C212.441 44.9 211.631 45.7 210.551 46.34C209.491 46.96 208.251 47.27 206.831 47.27C205.371 47.27 204.051 46.91 202.871 46.19C201.691 45.47 200.761 44.46 200.081 43.16C199.401 41.86 199.061 40.38 199.061 38.72ZM212.981 38.75C212.981 37.51 212.731 36.43 212.231 35.51C211.731 34.59 211.051 33.89 210.191 33.41C209.351 32.91 208.421 32.66 207.401 32.66C206.381 32.66 205.451 32.9 204.611 33.38C203.771 33.86 203.101 34.56 202.601 35.48C202.101 36.4 201.851 37.48 201.851 38.72C201.851 39.98 202.101 41.08 202.601 42.02C203.101 42.94 203.771 43.65 204.611 44.15C205.451 44.63 206.381 44.87 207.401 44.87C208.421 44.87 209.351 44.63 210.191 44.15C211.051 43.65 211.731 42.94 212.231 42.02C212.731 41.08 212.981 39.99 212.981 38.75ZM219.335 38.72C219.335 37.04 219.675 35.57 220.355 34.31C221.035 33.03 221.965 32.04 223.145 31.34C224.345 30.64 225.685 30.29 227.165 30.29C228.445 30.29 229.635 30.59 230.735 31.19C231.835 31.77 232.675 32.54 233.255 33.5V24.8H236.015V47H233.255V43.91C232.715 44.89 231.915 45.7 230.855 46.34C229.795 46.96 228.555 47.27 227.135 47.27C225.675 47.27 224.345 46.91 223.145 46.19C221.965 45.47 221.035 44.46 220.355 43.16C219.675 41.86 219.335 40.38 219.335 38.72ZM233.255 38.75C233.255 37.51 233.005 36.43 232.505 35.51C232.005 34.59 231.325 33.89 230.465 33.41C229.625 32.91 228.695 32.66 227.675 32.66C226.655 32.66 225.725 32.9 224.885 33.38C224.045 33.86 223.375 34.56 222.875 35.48C222.375 36.4 222.125 37.48 222.125 38.72C222.125 39.98 222.375 41.08 222.875 42.02C223.375 42.94 224.045 43.65 224.885 44.15C225.725 44.63 226.655 44.87 227.675 44.87C228.695 44.87 229.625 44.63 230.465 44.15C231.325 43.65 232.005 42.94 232.505 42.02C233.005 41.08 233.255 39.99 233.255 38.75ZM256.636 30.26C258.636 30.26 260.256 30.87 261.496 32.09C262.736 33.29 263.356 35.03 263.356 37.31V47H260.656V37.7C260.656 36.06 260.246 34.81 259.426 33.95C258.606 33.07 257.486 32.63 256.066 32.63C254.626 32.63 253.476 33.08 252.616 33.98C251.776 34.88 251.356 36.19 251.356 37.91V47H248.626V30.56H251.356V32.9C251.896 32.06 252.626 31.41 253.546 30.95C254.486 30.49 255.516 30.26 256.636 30.26ZM274.986 47.27C273.446 47.27 272.046 46.92 270.786 46.22C269.546 45.52 268.566 44.53 267.846 43.25C267.146 41.95 266.796 40.45 266.796 38.75C266.796 37.07 267.156 35.59 267.876 34.31C268.616 33.01 269.616 32.02 270.876 31.34C272.136 30.64 273.546 30.29 275.106 30.29C276.666 30.29 278.076 30.64 279.336 31.34C280.596 32.02 281.586 33 282.306 34.28C283.046 35.56 283.416 37.05 283.416 38.75C283.416 40.45 283.036 41.95 282.276 43.25C281.536 44.53 280.526 45.52 279.246 46.22C277.966 46.92 276.546 47.27 274.986 47.27ZM274.986 44.87C275.966 44.87 276.886 44.64 277.746 44.18C278.606 43.72 279.296 43.03 279.816 42.11C280.356 41.19 280.626 40.07 280.626 38.75C280.626 37.43 280.366 36.31 279.846 35.39C279.326 34.47 278.646 33.79 277.806 33.35C276.966 32.89 276.056 32.66 275.076 32.66C274.076 32.66 273.156 32.89 272.316 33.35C271.496 33.79 270.836 34.47 270.336 35.39C269.836 36.31 269.586 37.43 269.586 38.75C269.586 40.09 269.826 41.22 270.306 42.14C270.806 43.06 271.466 43.75 272.286 44.21C273.106 44.65 274.006 44.87 274.986 44.87ZM308.905 30.56L303.775 47H300.955L296.995 33.95L293.035 47H290.215L285.055 30.56H287.845L291.625 44.36L295.705 30.56H298.495L302.485 44.39L306.205 30.56H308.905Z" fill="black"/>
<rect width="358" height="67" rx="2" fill="#D2B48C"/>
<path d="M95.82 26.09C98.1 26.09 100.07 26.52 101.73 27.38C103.41 28.22 104.69 29.43 105.57 31.01C106.47 32.59 106.92 34.45 106.92 36.59C106.92 38.73 106.47 40.59 105.57 42.17C104.69 43.73 103.41 44.93 101.73 45.77C100.07 46.59 98.1 47 95.82 47H89.31V26.09H95.82ZM95.82 44.75C98.52 44.75 100.58 44.04 102 42.62C103.42 41.18 104.13 39.17 104.13 36.59C104.13 33.99 103.41 31.96 101.97 30.5C100.55 29.04 98.5 28.31 95.82 28.31H92.04V44.75H95.82ZM117.691 47.27C116.151 47.27 114.751 46.92 113.491 46.22C112.251 45.52 111.271 44.53 110.551 43.25C109.851 41.95 109.501 40.45 109.501 38.75C109.501 37.07 109.861 35.59 110.581 34.31C111.321 33.01 112.321 32.02 113.581 31.34C114.841 30.64 116.251 30.29 117.811 30.29C119.371 30.29 120.781 30.64 122.041 31.34C123.301 32.02 124.291 33 125.011 34.28C125.751 35.56 126.121 37.05 126.121 38.75C126.121 40.45 125.741 41.95 124.981 43.25C124.241 44.53 123.231 45.52 121.951 46.22C120.671 46.92 119.251 47.27 117.691 47.27ZM117.691 44.87C118.671 44.87 119.591 44.64 120.451 44.18C121.311 43.72 122.001 43.03 122.521 42.11C123.061 41.19 123.331 40.07 123.331 38.75C123.331 37.43 123.071 36.31 122.551 35.39C122.031 34.47 121.351 33.79 120.511 33.35C119.671 32.89 118.761 32.66 117.781 32.66C116.781 32.66 115.861 32.89 115.021 33.35C114.201 33.79 113.541 34.47 113.041 35.39C112.541 36.31 112.291 37.43 112.291 38.75C112.291 40.09 112.531 41.22 113.011 42.14C113.511 43.06 114.171 43.75 114.991 44.21C115.811 44.65 116.711 44.87 117.691 44.87ZM151.61 30.56L146.48 47H143.66L139.7 33.95L135.74 47H132.92L127.76 30.56H130.55L134.33 44.36L138.41 30.56H141.2L145.19 44.39L148.91 30.56H151.61ZM162.33 30.26C164.33 30.26 165.95 30.87 167.19 32.09C168.43 33.29 169.05 35.03 169.05 37.31V47H166.35V37.7C166.35 36.06 165.94 34.81 165.12 33.95C164.3 33.07 163.18 32.63 161.76 32.63C160.32 32.63 159.17 33.08 158.31 33.98C157.47 34.88 157.05 36.19 157.05 37.91V47H154.32V30.56H157.05V32.9C157.59 32.06 158.32 31.41 159.24 30.95C160.18 30.49 161.21 30.26 162.33 30.26ZM176.239 24.8V47H173.509V24.8H176.239ZM188.062 47.27C186.522 47.27 185.122 46.92 183.862 46.22C182.622 45.52 181.642 44.53 180.922 43.25C180.222 41.95 179.872 40.45 179.872 38.75C179.872 37.07 180.232 35.59 180.952 34.31C181.692 33.01 182.692 32.02 183.952 31.34C185.212 30.64 186.622 30.29 188.182 30.29C189.742 30.29 191.152 30.64 192.412 31.34C193.672 32.02 194.662 33 195.382 34.28C196.122 35.56 196.492 37.05 196.492 38.75C196.492 40.45 196.112 41.95 195.352 43.25C194.612 44.53 193.602 45.52 192.322 46.22C191.042 46.92 189.622 47.27 188.062 47.27ZM188.062 44.87C189.042 44.87 189.962 44.64 190.822 44.18C191.682 43.72 192.372 43.03 192.892 42.11C193.432 41.19 193.702 40.07 193.702 38.75C193.702 37.43 193.442 36.31 192.922 35.39C192.402 34.47 191.722 33.79 190.882 33.35C190.042 32.89 189.132 32.66 188.152 32.66C187.152 32.66 186.232 32.89 185.392 33.35C184.572 33.79 183.912 34.47 183.412 35.39C182.912 36.31 182.662 37.43 182.662 38.75C182.662 40.09 182.902 41.22 183.382 42.14C183.882 43.06 184.542 43.75 185.362 44.21C186.182 44.65 187.082 44.87 188.062 44.87ZM199.061 38.72C199.061 37.04 199.401 35.57 200.081 34.31C200.761 33.03 201.691 32.04 202.871 31.34C204.071 30.64 205.401 30.29 206.861 30.29C208.301 30.29 209.551 30.6 210.611 31.22C211.671 31.84 212.461 32.62 212.981 33.56V30.56H215.741V47H212.981V43.94C212.441 44.9 211.631 45.7 210.551 46.34C209.491 46.96 208.251 47.27 206.831 47.27C205.371 47.27 204.051 46.91 202.871 46.19C201.691 45.47 200.761 44.46 200.081 43.16C199.401 41.86 199.061 40.38 199.061 38.72ZM212.981 38.75C212.981 37.51 212.731 36.43 212.231 35.51C211.731 34.59 211.051 33.89 210.191 33.41C209.351 32.91 208.421 32.66 207.401 32.66C206.381 32.66 205.451 32.9 204.611 33.38C203.771 33.86 203.101 34.56 202.601 35.48C202.101 36.4 201.851 37.48 201.851 38.72C201.851 39.98 202.101 41.08 202.601 42.02C203.101 42.94 203.771 43.65 204.611 44.15C205.451 44.63 206.381 44.87 207.401 44.87C208.421 44.87 209.351 44.63 210.191 44.15C211.051 43.65 211.731 42.94 212.231 42.02C212.731 41.08 212.981 39.99 212.981 38.75ZM219.335 38.72C219.335 37.04 219.675 35.57 220.355 34.31C221.035 33.03 221.965 32.04 223.145 31.34C224.345 30.64 225.685 30.29 227.165 30.29C228.445 30.29 229.635 30.59 230.735 31.19C231.835 31.77 232.675 32.54 233.255 33.5V24.8H236.015V47H233.255V43.91C232.715 44.89 231.915 45.7 230.855 46.34C229.795 46.96 228.555 47.27 227.135 47.27C225.675 47.27 224.345 46.91 223.145 46.19C221.965 45.47 221.035 44.46 220.355 43.16C219.675 41.86 219.335 40.38 219.335 38.72ZM233.255 38.75C233.255 37.51 233.005 36.43 232.505 35.51C232.005 34.59 231.325 33.89 230.465 33.41C229.625 32.91 228.695 32.66 227.675 32.66C226.655 32.66 225.725 32.9 224.885 33.38C224.045 33.86 223.375 34.56 222.875 35.48C222.375 36.4 222.125 37.48 222.125 38.72C222.125 39.98 222.375 41.08 222.875 42.02C223.375 42.94 224.045 43.65 224.885 44.15C225.725 44.63 226.655 44.87 227.675 44.87C228.695 44.87 229.625 44.63 230.465 44.15C231.325 43.65 232.005 42.94 232.505 42.02C233.005 41.08 233.255 39.99 233.255 38.75ZM256.636 30.26C258.636 30.26 260.256 30.87 261.496 32.09C262.736 33.29 263.356 35.03 263.356 37.31V47H260.656V37.7C260.656 36.06 260.246 34.81 259.426 33.95C258.606 33.07 257.486 32.63 256.066 32.63C254.626 32.63 253.476 33.08 252.616 33.98C251.776 34.88 251.356 36.19 251.356 37.91V47H248.626V30.56H251.356V32.9C251.896 32.06 252.626 31.41 253.546 30.95C254.486 30.49 255.516 30.26 256.636 30.26ZM274.986 47.27C273.446 47.27 272.046 46.92 270.786 46.22C269.546 45.52 268.566 44.53 267.846 43.25C267.146 41.95 266.796 40.45 266.796 38.75C266.796 37.07 267.156 35.59 267.876 34.31C268.616 33.01 269.616 32.02 270.876 31.34C272.136 30.64 273.546 30.29 275.106 30.29C276.666 30.29 278.076 30.64 279.336 31.34C280.596 32.02 281.586 33 282.306 34.28C283.046 35.56 283.416 37.05 283.416 38.75C283.416 40.45 283.036 41.95 282.276 43.25C281.536 44.53 280.526 45.52 279.246 46.22C277.966 46.92 276.546 47.27 274.986 47.27ZM274.986 44.87C275.966 44.87 276.886 44.64 277.746 44.18C278.606 43.72 279.296 43.03 279.816 42.11C280.356 41.19 280.626 40.07 280.626 38.75C280.626 37.43 280.366 36.31 279.846 35.39C279.326 34.47 278.646 33.79 277.806 33.35C276.966 32.89 276.056 32.66 275.076 32.66C274.076 32.66 273.156 32.89 272.316 33.35C271.496 33.79 270.836 34.47 270.336 35.39C269.836 36.31 269.586 37.43 269.586 38.75C269.586 40.09 269.826 41.22 270.306 42.14C270.806 43.06 271.466 43.75 272.286 44.21C273.106 44.65 274.006 44.87 274.986 44.87ZM308.905 30.56L303.775 47H300.955L296.995 33.95L293.035 47H290.215L285.055 30.56H287.845L291.625 44.36L295.705 30.56H298.495L302.485 44.39L306.205 30.56H308.905Z" fill="black"/>
<path d="M47.5438 37.6625C46.8921 34.4281 43.9883 32 40.5 32C37.7304 32 35.325 33.5375 34.1271 35.7875C31.2425 36.0875 29 38.4781 29 41.375C29 44.4781 31.5779 47 34.75 47H47.2083C49.8533 47 52 44.9 52 42.3125C52 39.8375 50.0354 37.8313 47.5438 37.6625ZM45.2917 40.4375L40.5 45.125L35.7083 40.4375H38.5833V36.6875H42.4167V40.4375H45.2917Z" fill="#964B00"/>
</svg>
