<svg width="456" height="67" viewBox="0 0 456 67" fill="none" xmlns="http://www.w3.org/2000/svg">
<rect width="456" height="67" rx="2" fill="#D2B48C"/>
<path d="M63.15 29.15C62.57 27.93 61.73 26.99 60.63 26.33C59.53 25.65 58.25 25.31 56.79 25.31C55.33 25.31 54.01 25.65 52.83 26.33C51.67 26.99 50.75 27.95 50.07 29.21C49.41 30.45 49.08 31.89 49.08 33.53C49.08 35.17 49.41 36.61 50.07 37.85C50.75 39.09 51.67 40.05 52.83 40.73C54.01 41.39 55.33 41.72 56.79 41.72C58.83 41.72 60.51 41.11 61.83 39.89C63.15 38.67 63.92 37.02 64.14 34.94H55.8V32.72H67.05V34.82C66.89 36.54 66.35 38.12 65.43 39.56C64.51 40.98 63.3 42.11 61.8 42.95C60.3 43.77 58.63 44.18 56.79 44.18C54.85 44.18 53.08 43.73 51.48 42.83C49.88 41.91 48.61 40.64 47.67 39.02C46.75 37.4 46.29 35.57 46.29 33.53C46.29 31.49 46.75 29.66 47.67 28.04C48.61 26.4 49.88 25.13 51.48 24.23C53.08 23.31 54.85 22.85 56.79 22.85C59.01 22.85 60.97 23.4 62.67 24.5C64.39 25.6 65.64 27.15 66.42 29.15H63.15ZM77.8296 44.27C76.2896 44.27 74.8896 43.92 73.6296 43.22C72.3896 42.52 71.4096 41.53 70.6896 40.25C69.9896 38.95 69.6396 37.45 69.6396 35.75C69.6396 34.07 69.9996 32.59 70.7196 31.31C71.4596 30.01 72.4596 29.02 73.7196 28.34C74.9796 27.64 76.3896 27.29 77.9496 27.29C79.5096 27.29 80.9196 27.64 82.1796 28.34C83.4396 29.02 84.4296 30 85.1496 31.28C85.8896 32.56 86.2596 34.05 86.2596 35.75C86.2596 37.45 85.8796 38.95 85.1196 40.25C84.3796 41.53 83.3696 42.52 82.0896 43.22C80.8096 43.92 79.3896 44.27 77.8296 44.27ZM77.8296 41.87C78.8096 41.87 79.7296 41.64 80.5896 41.18C81.4496 40.72 82.1396 40.03 82.6596 39.11C83.1996 38.19 83.4696 37.07 83.4696 35.75C83.4696 34.43 83.2096 33.31 82.6896 32.39C82.1696 31.47 81.4896 30.79 80.6496 30.35C79.8096 29.89 78.8996 29.66 77.9196 29.66C76.9196 29.66 75.9996 29.89 75.1596 30.35C74.3396 30.79 73.6796 31.47 73.1796 32.39C72.6796 33.31 72.4296 34.43 72.4296 35.75C72.4296 37.09 72.6696 38.22 73.1496 39.14C73.6496 40.06 74.3096 40.75 75.1296 41.21C75.9496 41.65 76.8496 41.87 77.8296 41.87ZM100.577 30.62C101.137 29.64 101.957 28.84 103.037 28.22C104.117 27.6 105.347 27.29 106.727 27.29C108.207 27.29 109.537 27.64 110.717 28.34C111.897 29.04 112.827 30.03 113.507 31.31C114.187 32.57 114.527 34.04 114.527 35.72C114.527 37.38 114.187 38.86 113.507 40.16C112.827 41.46 111.887 42.47 110.687 43.19C109.507 43.91 108.187 44.27 106.727 44.27C105.307 44.27 104.057 43.96 102.977 43.34C101.917 42.72 101.117 41.93 100.577 40.97V44H97.8471V21.8H100.577V30.62ZM111.737 35.72C111.737 34.48 111.487 33.4 110.987 32.48C110.487 31.56 109.807 30.86 108.947 30.38C108.107 29.9 107.177 29.66 106.157 29.66C105.157 29.66 104.227 29.91 103.367 30.41C102.527 30.89 101.847 31.6 101.327 32.54C100.827 33.46 100.577 34.53 100.577 35.75C100.577 36.99 100.827 38.08 101.327 39.02C101.847 39.94 102.527 40.65 103.367 41.15C104.227 41.63 105.157 41.87 106.157 41.87C107.177 41.87 108.107 41.63 108.947 41.15C109.807 40.65 110.487 39.94 110.987 39.02C111.487 38.08 111.737 36.98 111.737 35.72ZM117.101 35.72C117.101 34.04 117.441 32.57 118.121 31.31C118.801 30.03 119.731 29.04 120.911 28.34C122.111 27.64 123.441 27.29 124.901 27.29C126.341 27.29 127.591 27.6 128.651 28.22C129.711 28.84 130.501 29.62 131.021 30.56V27.56H133.781V44H131.021V40.94C130.481 41.9 129.671 42.7 128.591 43.34C127.531 43.96 126.291 44.27 124.871 44.27C123.411 44.27 122.091 43.91 120.911 43.19C119.731 42.47 118.801 41.46 118.121 40.16C117.441 38.86 117.101 37.38 117.101 35.72ZM131.021 35.75C131.021 34.51 130.771 33.43 130.271 32.51C129.771 31.59 129.091 30.89 128.231 30.41C127.391 29.91 126.461 29.66 125.441 29.66C124.421 29.66 123.491 29.9 122.651 30.38C121.811 30.86 121.141 31.56 120.641 32.48C120.141 33.4 119.891 34.48 119.891 35.72C119.891 36.98 120.141 38.08 120.641 39.02C121.141 39.94 121.811 40.65 122.651 41.15C123.491 41.63 124.421 41.87 125.441 41.87C126.461 41.87 127.391 41.63 128.231 41.15C129.091 40.65 129.771 39.94 130.271 39.02C130.771 38.08 131.021 36.99 131.021 35.75ZM137.374 35.75C137.374 34.05 137.714 32.57 138.394 31.31C139.074 30.03 140.014 29.04 141.214 28.34C142.434 27.64 143.824 27.29 145.384 27.29C147.404 27.29 149.064 27.78 150.364 28.76C151.684 29.74 152.554 31.1 152.974 32.84H150.034C149.754 31.84 149.204 31.05 148.384 30.47C147.584 29.89 146.584 29.6 145.384 29.6C143.824 29.6 142.564 30.14 141.604 31.22C140.644 32.28 140.164 33.79 140.164 35.75C140.164 37.73 140.644 39.26 141.604 40.34C142.564 41.42 143.824 41.96 145.384 41.96C146.584 41.96 147.584 41.68 148.384 41.12C149.184 40.56 149.734 39.76 150.034 38.72H152.974C152.534 40.4 151.654 41.75 150.334 42.77C149.014 43.77 147.364 44.27 145.384 44.27C143.824 44.27 142.434 43.92 141.214 43.22C140.014 42.52 139.074 41.53 138.394 40.25C137.714 38.97 137.374 37.47 137.374 35.75ZM165.797 44L159.347 36.74V44H156.617V21.8H159.347V34.85L165.677 27.56H169.487L161.747 35.75L169.517 44H165.797ZM183.384 29.81V39.5C183.384 40.3 183.554 40.87 183.894 41.21C184.234 41.53 184.824 41.69 185.664 41.69H187.674V44H185.214C183.694 44 182.554 43.65 181.794 42.95C181.034 42.25 180.654 41.1 180.654 39.5V29.81H178.524V27.56H180.654V23.42H183.384V27.56H187.674V29.81H183.384ZM198.152 44.27C196.612 44.27 195.212 43.92 193.952 43.22C192.712 42.52 191.732 41.53 191.012 40.25C190.312 38.95 189.962 37.45 189.962 35.75C189.962 34.07 190.322 32.59 191.042 31.31C191.782 30.01 192.782 29.02 194.042 28.34C195.302 27.64 196.712 27.29 198.272 27.29C199.832 27.29 201.242 27.64 202.502 28.34C203.762 29.02 204.752 30 205.472 31.28C206.212 32.56 206.582 34.05 206.582 35.75C206.582 37.45 206.202 38.95 205.442 40.25C204.702 41.53 203.692 42.52 202.412 43.22C201.132 43.92 199.712 44.27 198.152 44.27ZM198.152 41.87C199.132 41.87 200.052 41.64 200.912 41.18C201.772 40.72 202.462 40.03 202.982 39.11C203.522 38.19 203.792 37.07 203.792 35.75C203.792 34.43 203.532 33.31 203.012 32.39C202.492 31.47 201.812 30.79 200.972 30.35C200.132 29.89 199.222 29.66 198.242 29.66C197.242 29.66 196.322 29.89 195.482 30.35C194.662 30.79 194.002 31.47 193.502 32.39C193.002 33.31 192.752 34.43 192.752 35.75C192.752 37.09 192.992 38.22 193.472 39.14C193.972 40.06 194.632 40.75 195.452 41.21C196.272 41.65 197.172 41.87 198.152 41.87ZM220.899 21.8V44H218.169V21.8H220.899ZM224.532 35.72C224.532 34.04 224.872 32.57 225.552 31.31C226.232 30.03 227.162 29.04 228.342 28.34C229.542 27.64 230.872 27.29 232.332 27.29C233.772 27.29 235.022 27.6 236.082 28.22C237.142 28.84 237.932 29.62 238.452 30.56V27.56H241.212V44H238.452V40.94C237.912 41.9 237.102 42.7 236.022 43.34C234.962 43.96 233.722 44.27 232.302 44.27C230.842 44.27 229.522 43.91 228.342 43.19C227.162 42.47 226.232 41.46 225.552 40.16C224.872 38.86 224.532 37.38 224.532 35.72ZM238.452 35.75C238.452 34.51 238.202 33.43 237.702 32.51C237.202 31.59 236.522 30.89 235.662 30.41C234.822 29.91 233.892 29.66 232.872 29.66C231.852 29.66 230.922 29.9 230.082 30.38C229.242 30.86 228.572 31.56 228.072 32.48C227.572 33.4 227.322 34.48 227.322 35.72C227.322 36.98 227.572 38.08 228.072 39.02C228.572 39.94 229.242 40.65 230.082 41.15C230.922 41.63 231.852 41.87 232.872 41.87C233.892 41.87 234.822 41.63 235.662 41.15C236.522 40.65 237.202 39.94 237.702 39.02C238.202 38.08 238.452 36.99 238.452 35.75ZM253.836 27.26C255.836 27.26 257.456 27.87 258.696 29.09C259.936 30.29 260.556 32.03 260.556 34.31V44H257.856V34.7C257.856 33.06 257.446 31.81 256.626 30.95C255.806 30.07 254.686 29.63 253.266 29.63C251.826 29.63 250.676 30.08 249.816 30.98C248.976 31.88 248.556 33.19 248.556 34.91V44H245.826V27.56H248.556V29.9C249.096 29.06 249.826 28.41 250.746 27.95C251.686 27.49 252.716 27.26 253.836 27.26ZM263.995 35.72C263.995 34.04 264.335 32.57 265.015 31.31C265.695 30.03 266.625 29.04 267.805 28.34C269.005 27.64 270.345 27.29 271.825 27.29C273.105 27.29 274.295 27.59 275.395 28.19C276.495 28.77 277.335 29.54 277.915 30.5V21.8H280.675V44H277.915V40.91C277.375 41.89 276.575 42.7 275.515 43.34C274.455 43.96 273.215 44.27 271.795 44.27C270.335 44.27 269.005 43.91 267.805 43.19C266.625 42.47 265.695 41.46 265.015 40.16C264.335 38.86 263.995 37.38 263.995 35.72ZM277.915 35.75C277.915 34.51 277.665 33.43 277.165 32.51C276.665 31.59 275.985 30.89 275.125 30.41C274.285 29.91 273.355 29.66 272.335 29.66C271.315 29.66 270.385 29.9 269.545 30.38C268.705 30.86 268.035 31.56 267.535 32.48C267.035 33.4 266.785 34.48 266.785 35.72C266.785 36.98 267.035 38.08 267.535 39.02C268.035 39.94 268.705 40.65 269.545 41.15C270.385 41.63 271.315 41.87 272.335 41.87C273.355 41.87 274.285 41.63 275.125 41.15C275.985 40.65 276.665 39.94 277.165 39.02C277.665 38.08 277.915 36.99 277.915 35.75ZM286.699 24.89C286.179 24.89 285.739 24.71 285.379 24.35C285.019 23.99 284.839 23.55 284.839 23.03C284.839 22.51 285.019 22.07 285.379 21.71C285.739 21.35 286.179 21.17 286.699 21.17C287.199 21.17 287.619 21.35 287.959 21.71C288.319 22.07 288.499 22.51 288.499 23.03C288.499 23.55 288.319 23.99 287.959 24.35C287.619 24.71 287.199 24.89 286.699 24.89ZM288.019 27.56V44H285.289V27.56H288.019ZM300.681 27.26C302.681 27.26 304.301 27.87 305.541 29.09C306.781 30.29 307.401 32.03 307.401 34.31V44H304.701V34.7C304.701 33.06 304.291 31.81 303.471 30.95C302.651 30.07 301.531 29.63 300.111 29.63C298.671 29.63 297.521 30.08 296.661 30.98C295.821 31.88 295.401 33.19 295.401 34.91V44H292.671V27.56H295.401V29.9C295.941 29.06 296.671 28.41 297.591 27.95C298.531 27.49 299.561 27.26 300.681 27.26ZM318.641 27.29C320.061 27.29 321.301 27.6 322.361 28.22C323.441 28.84 324.241 29.62 324.761 30.56V27.56H327.521V44.36C327.521 45.86 327.201 47.19 326.561 48.35C325.921 49.53 325.001 50.45 323.801 51.11C322.621 51.77 321.241 52.1 319.661 52.1C317.501 52.1 315.701 51.59 314.261 50.57C312.821 49.55 311.971 48.16 311.711 46.4H314.411C314.711 47.4 315.331 48.2 316.271 48.8C317.211 49.42 318.341 49.73 319.661 49.73C321.161 49.73 322.381 49.26 323.321 48.32C324.281 47.38 324.761 46.06 324.761 44.36V40.91C324.221 41.87 323.421 42.67 322.361 43.31C321.301 43.95 320.061 44.27 318.641 44.27C317.181 44.27 315.851 43.91 314.651 43.19C313.471 42.47 312.541 41.46 311.861 40.16C311.181 38.86 310.841 37.38 310.841 35.72C310.841 34.04 311.181 32.57 311.861 31.31C312.541 30.03 313.471 29.04 314.651 28.34C315.851 27.64 317.181 27.29 318.641 27.29ZM324.761 35.75C324.761 34.51 324.511 33.43 324.011 32.51C323.511 31.59 322.831 30.89 321.971 30.41C321.131 29.91 320.201 29.66 319.181 29.66C318.161 29.66 317.231 29.9 316.391 30.38C315.551 30.86 314.881 31.56 314.381 32.48C313.881 33.4 313.631 34.48 313.631 35.72C313.631 36.98 313.881 38.08 314.381 39.02C314.881 39.94 315.551 40.65 316.391 41.15C317.231 41.63 318.161 41.87 319.181 41.87C320.201 41.87 321.131 41.63 321.971 41.15C322.831 40.65 323.511 39.94 324.011 39.02C324.511 38.08 324.761 36.99 324.761 35.75ZM342.862 30.59C343.402 29.65 344.202 28.87 345.262 28.25C346.342 27.61 347.592 27.29 349.012 27.29C350.472 27.29 351.792 27.64 352.972 28.34C354.172 29.04 355.112 30.03 355.792 31.31C356.472 32.57 356.812 34.04 356.812 35.72C356.812 37.38 356.472 38.86 355.792 40.16C355.112 41.46 354.172 42.47 352.972 43.19C351.792 43.91 350.472 44.27 349.012 44.27C347.612 44.27 346.372 43.96 345.292 43.34C344.232 42.7 343.422 41.91 342.862 40.97V51.8H340.132V27.56H342.862V30.59ZM354.022 35.72C354.022 34.48 353.772 33.4 353.272 32.48C352.772 31.56 352.092 30.86 351.232 30.38C350.392 29.9 349.462 29.66 348.442 29.66C347.442 29.66 346.512 29.91 345.652 30.41C344.812 30.89 344.132 31.6 343.612 32.54C343.112 33.46 342.862 34.53 342.862 35.75C342.862 36.99 343.112 38.08 343.612 39.02C344.132 39.94 344.812 40.65 345.652 41.15C346.512 41.63 347.442 41.87 348.442 41.87C349.462 41.87 350.392 41.63 351.232 41.15C352.092 40.65 352.772 39.94 353.272 39.02C353.772 38.08 354.022 36.98 354.022 35.72ZM359.386 35.72C359.386 34.04 359.726 32.57 360.406 31.31C361.086 30.03 362.016 29.04 363.196 28.34C364.396 27.64 365.726 27.29 367.186 27.29C368.626 27.29 369.876 27.6 370.936 28.22C371.996 28.84 372.786 29.62 373.306 30.56V27.56H376.066V44H373.306V40.94C372.766 41.9 371.956 42.7 370.876 43.34C369.816 43.96 368.576 44.27 367.156 44.27C365.696 44.27 364.376 43.91 363.196 43.19C362.016 42.47 361.086 41.46 360.406 40.16C359.726 38.86 359.386 37.38 359.386 35.72ZM373.306 35.75C373.306 34.51 373.056 33.43 372.556 32.51C372.056 31.59 371.376 30.89 370.516 30.41C369.676 29.91 368.746 29.66 367.726 29.66C366.706 29.66 365.776 29.9 364.936 30.38C364.096 30.86 363.426 31.56 362.926 32.48C362.426 33.4 362.176 34.48 362.176 35.72C362.176 36.98 362.426 38.08 362.926 39.02C363.426 39.94 364.096 40.65 364.936 41.15C365.776 41.63 366.706 41.87 367.726 41.87C368.746 41.87 369.676 41.63 370.516 41.15C371.376 40.65 372.056 39.94 372.556 39.02C373.056 38.08 373.306 36.99 373.306 35.75ZM387.459 27.29C388.879 27.29 390.119 27.6 391.179 28.22C392.259 28.84 393.059 29.62 393.579 30.56V27.56H396.339V44.36C396.339 45.86 396.019 47.19 395.379 48.35C394.739 49.53 393.819 50.45 392.619 51.11C391.439 51.77 390.059 52.1 388.479 52.1C386.319 52.1 384.519 51.59 383.079 50.57C381.639 49.55 380.789 48.16 380.529 46.4H383.229C383.529 47.4 384.149 48.2 385.089 48.8C386.029 49.42 387.159 49.73 388.479 49.73C389.979 49.73 391.199 49.26 392.139 48.32C393.099 47.38 393.579 46.06 393.579 44.36V40.91C393.039 41.87 392.239 42.67 391.179 43.31C390.119 43.95 388.879 44.27 387.459 44.27C385.999 44.27 384.669 43.91 383.469 43.19C382.289 42.47 381.359 41.46 380.679 40.16C379.999 38.86 379.659 37.38 379.659 35.72C379.659 34.04 379.999 32.57 380.679 31.31C381.359 30.03 382.289 29.04 383.469 28.34C384.669 27.64 385.999 27.29 387.459 27.29ZM393.579 35.75C393.579 34.51 393.329 33.43 392.829 32.51C392.329 31.59 391.649 30.89 390.789 30.41C389.949 29.91 389.019 29.66 387.999 29.66C386.979 29.66 386.049 29.9 385.209 30.38C384.369 30.86 383.699 31.56 383.199 32.48C382.699 33.4 382.449 34.48 382.449 35.72C382.449 36.98 382.699 38.08 383.199 39.02C383.699 39.94 384.369 40.65 385.209 41.15C386.049 41.63 386.979 41.87 387.999 41.87C389.019 41.87 389.949 41.63 390.789 41.15C391.649 40.65 392.329 39.94 392.829 39.02C393.329 38.08 393.579 36.99 393.579 35.75ZM415.953 35.15C415.953 35.67 415.923 36.22 415.863 36.8H402.723C402.823 38.42 403.373 39.69 404.373 40.61C405.393 41.51 406.623 41.96 408.063 41.96C409.243 41.96 410.223 41.69 411.003 41.15C411.803 40.59 412.363 39.85 412.683 38.93H415.623C415.183 40.51 414.303 41.8 412.983 42.8C411.663 43.78 410.023 44.27 408.063 44.27C406.503 44.27 405.103 43.92 403.863 43.22C402.643 42.52 401.683 41.53 400.983 40.25C400.283 38.95 399.933 37.45 399.933 35.75C399.933 34.05 400.273 32.56 400.953 31.28C401.633 30 402.583 29.02 403.803 28.34C405.043 27.64 406.463 27.29 408.063 27.29C409.623 27.29 411.003 27.63 412.203 28.31C413.403 28.99 414.323 29.93 414.963 31.13C415.623 32.31 415.953 33.65 415.953 35.15ZM413.133 34.58C413.133 33.54 412.903 32.65 412.443 31.91C411.983 31.15 411.353 30.58 410.553 30.2C409.773 29.8 408.903 29.6 407.943 29.6C406.563 29.6 405.383 30.04 404.403 30.92C403.443 31.8 402.893 33.02 402.753 34.58H413.133Z" fill="black"/>
</svg>
