<svg width="85" height="85" viewBox="0 0 85 85" fill="none" xmlns="http://www.w3.org/2000/svg">
<g opacity="0.7">
<circle cx="42.5" cy="42.5" r="42.5" fill="#D2B48C"/>
<path d="M54 31.7083V54.6667C54 58.15 51.6273 61 48.7273 61H39.1045C37.6809 61 36.3364 60.3192 35.3477 59.1158L25 46.4808C25 46.4808 26.6609 44.5333 26.7136 44.5017C27.0036 44.2008 27.3595 44.0425 27.755 44.0425C28.045 44.0425 28.3086 44.1375 28.5459 44.2958C28.5986 44.3117 34.2273 48.1908 34.2273 48.1908V29.3333C34.2273 28.0192 35.1105 26.9583 36.2045 26.9583C37.2986 26.9583 38.1818 28.0192 38.1818 29.3333V40.4167H39.5V25.375C39.5 24.0608 40.3832 23 41.4773 23C42.5714 23 43.4545 24.0608 43.4545 25.375V40.4167H44.7727V26.9583C44.7727 25.6442 45.6559 24.5833 46.75 24.5833C47.8441 24.5833 48.7273 25.6442 48.7273 26.9583V40.4167H50.0455V31.7083C50.0455 30.3942 50.9286 29.3333 52.0227 29.3333C53.1168 29.3333 54 30.3942 54 31.7083Z" fill="white"/>
</g>
</svg>
