<svg width="59" height="59" viewBox="0 0 59 59" fill="none" xmlns="http://www.w3.org/2000/svg">
<g opacity="0.6">
<circle cx="29.5" cy="29.5" r="29.5" fill="#D2B48C"/>
<g clip-path="url(#clip0)">
<path d="M48.3385 44.25V44.2486H48.3473V31.3257C48.3473 25.0038 46.9863 20.1339 39.5955 20.1339C36.0425 20.1339 33.6582 22.0836 32.6848 23.932H32.582V20.7241H25.5745V44.2486H32.8713V32.6001C32.8713 29.5331 33.4527 26.5674 37.2508 26.5674C40.9932 26.5674 41.049 30.0675 41.049 32.7968V44.25H48.3385Z" fill="black"/>
<path d="M13.6927 20.7255H20.9984V44.25H13.6927V20.7255Z" fill="black"/>
<path d="M17.3424 9.01392C15.0065 9.01392 13.1111 10.9093 13.1111 13.2452C13.1111 15.581 15.0065 17.5161 17.3424 17.5161C19.6782 17.5161 21.5736 15.581 21.5736 13.2452C21.5722 10.9093 19.6767 9.01392 17.3424 9.01392V9.01392Z" fill="black"/>
</g>
</g>
<defs>
<clipPath id="clip0">
<rect width="35.2361" height="35.2361" fill="white" transform="translate(13.1111 9.01392)"/>
</clipPath>
</defs>
</svg>
