<svg width="227" height="351" viewBox="0 0 227 351" fill="none" xmlns="http://www.w3.org/2000/svg">
<path fill-rule="evenodd" clip-rule="evenodd" d="M6.53222 238.202L212.105 255.513L212.321 256.995C215.765 280.793 217.505 296.937 217.54 305.429V305.69C217.54 314.11 219.978 327.502 224.851 345.866L225.152 346.996L6.24539 347.401L3.66309 292.126L6.53222 238.202ZM128.237 119.592C136.596 120.03 145.02 123.832 145.671 126.261C147.12 131.671 149.45 154.832 157.114 158.39C164.778 161.948 181.137 158.704 185.816 167.202C190.493 175.699 205.855 210.338 205.855 218.41C205.855 223.791 155.792 225.659 55.6665 224.013C56.9448 180.673 62.2737 157.89 71.6533 155.665L72.4906 155.469C86.0551 152.326 94.1617 152.225 98.7888 147.158C103.511 141.988 104.368 133.113 106.326 126.261C107.406 122.485 117.98 119.056 128.237 119.592Z" fill="white"/>
<path fill-rule="evenodd" clip-rule="evenodd" d="M146.568 133.135C146.599 133.109 146.632 133.1 146.666 133.119C147.317 133.452 147.452 134.114 147.675 134.805C148.002 135.816 148.381 136.803 148.732 137.804C149.428 139.812 150.094 141.818 150.872 143.793C151.669 145.826 152.496 147.822 153.443 149.786C153.899 150.735 154.39 151.667 154.889 152.591C155.233 153.234 155.555 154.117 156.008 154.72C156.042 154.528 156.091 154.345 156.148 154.174C156.089 154.206 156.031 154.239 155.976 154.275C155.862 154.351 155.723 154.199 155.792 154.081C156.04 153.649 156.36 153.356 156.728 153.157C157.744 151.962 180.132 157.671 186.252 164.082C197.337 175.693 204.819 190.049 209.74 205.322C212.457 213.749 214.96 222.258 217.544 230.732C220.275 239.693 223.127 248.613 225.865 257.567C226.464 259.537 225.156 261.325 223.503 261.975C220.425 263.179 217.323 264.315 214.196 265.365C215.713 271.547 216.775 277.859 217.539 284.189C219.114 297.243 219.312 310.561 221.794 323.478C222.364 326.443 223.085 329.365 223.847 332.281L224.024 332.954C224.476 334.663 224.89 336.389 225.446 338.063C225.925 339.503 226.546 340.954 226.881 342.439C227.274 344.186 226.694 346.095 225.154 346.993C223.916 347.714 222.147 347.416 221.401 346.061C221.249 345.784 221.157 345.483 221.12 345.178C221.007 344.926 220.904 344.667 220.813 344.403C220.776 344.301 220.745 344.195 220.715 344.089L220.626 343.773C220.408 343.018 220.207 342.258 220.006 341.496C219.679 340.275 219.35 339.059 218.986 337.848L218.802 337.245C217.9 334.335 217.093 331.401 216.391 328.43C213.876 317.778 213.342 306.75 212.651 295.835L212.616 295.27C211.989 285.488 211.616 275.727 212.382 265.967L212.277 266.004L212.173 266.037C211.177 266.36 210.179 266.677 209.178 266.983C209.146 266.996 209.117 267.008 209.086 267.018C208.445 267.228 207.786 267.428 207.117 267.614L206.713 267.724L206.429 267.806L206.129 267.896C205.181 268.187 204.213 268.523 203.23 268.491C201.6 268.768 199.942 268.935 198.312 268.94C198.814 277.648 199.393 286.351 200.086 295.043C200.78 303.781 201.7 312.485 202.655 321.19C203.126 325.49 203.632 329.781 204.189 334.067C204.47 336.24 204.762 338.401 205.135 340.556C205.519 342.759 206.2 345.115 205.79 347.343C205.78 347.34 205.772 347.337 205.764 347.337C205.625 347.982 205.259 348.561 204.619 348.958C203.444 349.687 201.804 349.261 201.13 347.988C201.072 347.881 201.017 347.772 200.966 347.659C200.274 347.973 199.517 348.094 198.588 348.104L185.98 348.238C180.251 348.299 174.521 348.362 168.787 348.45C150.789 348.732 132.79 349.056 114.793 349.288L108.043 349.37C97.9195 349.482 87.7922 349.704 77.6691 349.701C72.6052 349.701 67.5465 349.683 62.4823 349.553C60.0291 349.488 57.5817 349.387 55.1312 349.281L54.6987 349.261C52.7425 349.158 50.6657 348.965 48.753 349.431C48.225 350.521 46.8766 350.745 46.1706 349.632C44.5577 347.083 44.1176 343.526 43.8196 340.412L43.7146 339.29C43.3846 335.799 43.0949 332.307 42.8796 328.811C42.1164 316.42 41.8381 304.017 42.1882 291.603C42.366 285.276 42.9141 278.985 43.5625 272.693C43.7662 270.73 43.9786 268.77 44.2081 266.813L44.2121 266.118C44.2124 265.895 44.211 265.683 44.2053 265.483L44.148 263.595C44.1006 262.021 44.0563 260.447 44.038 258.872L44.0302 257.927L44.0217 256.167C42.6042 256.025 41.0921 255.525 39.8698 255.284C37.8875 254.891 35.9103 254.469 33.9391 254.021C29.9911 253.12 26.086 252.056 22.2069 250.878L21.3818 250.626C17.8024 249.531 14.1735 248.365 10.7872 246.729C9.46172 246.087 8.13893 245.362 6.97694 244.413C6.90808 245.411 6.80188 246.406 6.73872 247.396C6.61283 249.353 6.4633 251.304 6.33998 253.261L6.22196 255.123C6.02816 258.225 5.85365 261.324 5.77474 264.436C5.42462 278.011 5.36446 291.643 6.04161 305.208C6.37719 311.998 6.85647 318.788 7.54788 325.552C7.88646 328.878 8.24513 332.213 8.68692 335.528C9.14325 338.934 9.96667 342.318 10.2191 345.748C10.4602 349.056 5.69149 349.537 4.90814 346.512C3.97023 342.884 3.73134 338.972 3.23699 335.242L3.1809 334.827C2.6329 330.865 2.19396 326.887 1.81519 322.903C0.507604 309.161 0.168216 295.35 0.853923 281.557C1.18 274.95 1.95304 268.37 2.88863 261.834L2.99728 261.079C3.42318 258.152 3.82192 255.225 4.30432 252.311L4.4893 251.218C4.92253 248.713 5.2554 245.989 5.95836 243.485L5.74935 243.28C5.35875 242.894 4.9353 242.448 4.62701 241.965C3.56538 241.814 2.66156 241.005 2.77347 239.535C3.13785 234.705 4.80207 229.791 6.28539 225.232C7.77455 220.648 9.50179 216.151 11.4587 211.768C18.342 196.365 28.2552 182.379 40.3777 171.175C46.8077 165.232 53.8545 159.96 61.6416 156.207C65.4807 154.354 69.4516 152.921 73.6121 152.148C75.6722 151.763 77.7524 151.465 79.8468 151.402C81.5461 150.338 83.5637 150.786 85.209 151.952L85.2984 152.017H85.3015L85.7231 152.105C85.8263 152.126 85.8235 152.299 85.7231 152.324C85.7174 152.324 85.7087 152.327 85.703 152.331C85.9727 152.555 86.228 152.796 86.4667 153.055C87.253 153.906 87.2489 154.936 86.8456 155.767C89.2521 158.134 90.7732 161.174 92.3649 164.24C94.072 167.521 96.3075 170.357 99.0278 172.749C108.999 181.521 123.662 185.402 136.156 181.259C145.343 178.216 153.19 169.977 155.359 160.058C154.846 160.253 154.289 160.283 153.761 160.083C151.282 159.145 150.337 156.271 149.389 153.867L149.343 153.752C148.415 151.424 147.638 149.059 147.025 146.618C146.405 144.153 146.04 141.551 145.888 139.006C145.829 137.999 145.855 136.993 145.904 135.988L145.948 135.155C145.982 134.402 145.971 133.632 146.568 133.135ZM106.23 126.351C106.264 126.259 106.398 126.21 106.45 126.321C108.644 131.123 107.205 137.703 105.13 142.284C102.958 147.075 99.6878 150.708 95.8118 153.852C95.278 154.284 94.7294 154.71 94.1725 155.127C90.9389 157.55 88.0583 151.019 91.7918 149.77C95.6814 147.674 98.8444 143.935 101.042 140.01C102.23 137.889 103.283 135.68 104.089 133.36C104.892 131.047 105.374 128.639 106.23 126.351Z" fill="black"/>
<path fill-rule="evenodd" clip-rule="evenodd" d="M180.851 88.1742C182.629 74.5693 178.833 61.4391 173.916 49.0044C173.646 48.2471 173.218 47.5913 172.667 47.125C158.791 17.4573 138.401 14.7708 109.955 16.8139C109.116 16.7942 109.066 16.81 108.427 16.5072C108.321 4.45528 95.346 -1.92847 85.4711 2.0478C41.6774 23.6354 55.448 84.4099 64.1627 124.088C67.2718 139.447 70.3818 154.805 73.4914 170.163C73.5958 170.678 73.816 171.122 74.1087 171.497C73.657 171.678 73.2051 171.848 72.7618 172.008C71.75 172.374 72.152 173.974 73.2051 173.715C74.2371 173.46 75.2317 173.12 76.2155 172.748C77.7493 173.101 79.0353 172.038 80.2396 171.19C94.341 165.276 100.261 145.837 103.878 131.515C118.583 142.522 142.08 150.763 158.893 140.867C174.647 130.804 180.321 109.811 179.202 91.2818C180.351 90.7202 180.816 89.4976 180.845 88.2217H180.852C180.852 88.2059 180.851 88.19 180.851 88.1742Z" fill="white"/>
<path fill-rule="evenodd" clip-rule="evenodd" d="M81.431 3.18261C84.6821 0.948656 88.8542 0.117173 92.6855 0.280043C94.728 0.366734 96.6348 0.906895 98.5185 1.71836C100.264 2.47079 101.804 3.55155 103.503 4.37511C103.606 4.42494 103.529 4.57873 103.431 4.55771C101.418 4.1267 99.055 4.38707 97.0137 4.69567L96.8114 4.72663C94.8054 5.03552 92.7642 5.19536 90.7868 5.68556C87.1444 6.58861 83.7567 8.5563 81.7577 11.9787C79.1476 16.4485 78.4785 22.2343 78.7577 27.3913C78.8988 30.0005 79.3838 32.5674 80.1389 35.055C80.5922 36.5479 81.6456 38.0498 82.1376 39.6163C82.512 38.875 82.8985 38.1408 83.2988 37.4155C81.4754 36.5039 80.9641 33.9706 80.8697 31.6842C80.5888 31.3964 80.408 30.9796 80.4021 30.5971C80.3859 29.5687 80.6141 28.6377 81.0019 27.7857C81.2234 25.3728 81.693 22.9672 82.5009 20.7062C85.6722 11.829 94.0381 3.82818 103.526 4.61848C106.133 4.83593 108.672 6.01044 110.019 8.50734C111.103 10.5123 111.109 12.931 110.363 15.0637C110.141 15.6968 109.853 16.2684 109.515 16.7896C110.539 16.514 111.567 16.2495 112.591 15.9874C116.148 15.078 119.723 14.3655 123.365 13.9693C128.325 13.43 133.386 14.2459 137.931 16.3457C139.177 16.6857 140.417 17.0509 141.651 17.441C147.076 19.1569 152.642 21.3982 157.024 25.315C159.04 27.1171 160.483 29.2135 161.654 31.5156C166.041 35.6642 170.236 40.3672 173.197 45.7469C179.299 56.8313 180.754 70.5421 181.006 83.144C181.237 94.7191 180.278 106.414 178.232 117.787C177.303 122.95 175.803 127.747 172.766 131.98C169.386 136.694 164.876 140.409 159.815 142.9C149.514 147.974 136.763 148.712 126.749 142.427C123.737 140.536 126.449 135.608 129.491 137.45C139.378 143.433 151.995 142.067 161.506 135.723C165.525 133.043 168.988 129.378 171.188 124.891C172.795 121.612 173.483 117.854 174.081 114.194L174.399 112.236C176.24 100.982 177.074 89.4385 176.631 78.0207C176.189 66.6318 174.485 54.2963 168.404 44.6139C165.196 39.5067 161.105 35.0328 156.808 30.9531C156.507 30.6665 156.204 30.381 155.901 30.0964C154.223 29.0261 152.481 28.0913 150.769 27.2937L150.405 27.1265C149.42 26.6811 148.042 26.1056 146.764 25.6455C144.937 24.9879 143.079 24.4035 141.216 23.8769C140.238 23.6009 139.256 23.3476 138.272 23.1057C138.615 23.4395 138.956 23.7765 139.292 24.122C140.879 25.7584 142.138 27.7032 143.644 29.4192C143.814 29.6129 143.599 29.8953 143.383 29.7775C141.094 28.5314 138.555 27.7248 136.165 26.7153C133.905 25.7609 131.708 24.6621 129.489 23.6092C128.932 23.3449 128.378 23.0628 127.825 22.7837C125.643 22.8075 123.459 22.8619 121.28 22.9937C123.914 24.9821 126.319 27.332 128.311 29.9089C128.476 30.1211 128.326 30.4611 128.049 30.3859C123.88 29.2531 119.913 27.5886 115.95 25.8441L114.054 25.0067C112.659 24.9318 111.263 24.8968 109.867 24.9187L109.19 24.9307C107.725 24.9603 106.262 25.022 104.809 25.2574C104.464 25.3132 104.125 25.3662 103.789 25.4148C101.745 26.2999 99.7775 27.367 98.0079 28.7735L98.4683 28.7445C101.267 28.5756 104.121 28.8312 106.831 29.5976C112.097 31.0873 116.591 34.6748 119.861 39.249C119.959 39.3859 119.769 39.5764 119.64 39.4834C115.526 36.4962 110.755 34.9913 105.867 34.1742C103.504 33.7788 101.07 33.6427 98.6856 33.8397C96.7095 34.0026 94.6669 34.7406 92.7018 34.3823C92.1653 35.09 91.6519 35.8189 91.1562 36.564C91.417 36.5463 91.6777 36.5301 91.9412 36.517C94.7633 36.3765 97.6371 36.5686 100.393 37.2577C105.897 38.6348 110.496 42.1397 114.704 45.9877C114.787 46.0639 114.68 46.1995 114.589 46.1448C110.027 43.3514 104.724 42.5166 99.5547 42.0126C96.9513 41.7587 94.3192 41.6436 91.7103 41.864C90.5152 41.9648 89.3336 42.1739 88.1412 42.3037C88.0448 42.3144 87.9457 42.3171 87.8465 42.322C86.9828 44.0495 86.1993 45.8081 85.4929 47.5615C87.6482 46.9479 89.9747 46.6259 92.2006 46.7848C96.7217 47.1078 101.206 49.3067 104.816 52.1193C104.929 52.2073 104.866 52.4416 104.713 52.3801C100.784 50.8057 96.8901 50.7928 92.79 51.4004C90.8669 51.6852 88.9656 52.0718 87.1077 52.678C86.1744 52.983 85.2513 53.3157 84.3653 53.7536C83.963 53.952 83.5713 54.1834 83.1755 54.4016C82.8586 55.5423 82.5754 56.6937 82.3201 57.8521C89.0213 58.2529 95.3351 61.6082 100.829 65.4589C100.962 65.5519 100.879 65.8113 100.715 65.7455C97.4347 64.4329 93.867 63.826 90.3875 63.4726C87.3467 63.1637 84.361 63.3317 81.3366 63.4218C81.1744 64.6407 81.0434 65.8633 80.9483 67.0883C81.4346 67.2329 81.9119 67.3887 82.3706 67.5352C83.8795 68.016 85.3856 68.6634 86.794 69.414C89.6542 70.9384 91.9711 72.9993 94.3029 75.2901C94.4252 75.4098 94.2975 75.6709 94.1332 75.5999C91.4265 74.4395 88.4685 73.6961 85.6198 73.0385C84.1453 72.6982 82.6701 72.3841 81.1853 72.0959C81.0416 72.0679 80.8956 72.0445 80.7497 72.0213C80.7358 74.8142 80.8846 77.608 81.2129 80.3788L81.2766 80.8981C81.4545 82.3001 81.309 83.6567 80.4336 84.6258C81.6445 83.7719 83.0297 83.1815 84.5651 82.9539C88.6084 82.3577 92.3514 84.0714 94.8964 87.385C95.0146 87.5405 94.8313 87.7435 94.6873 87.6067C92.2183 85.2767 88.4129 84.8649 85.3465 85.9608C82.5078 86.9774 80.3737 89.4025 79.5183 92.4367C78.6094 95.6609 79.0256 99.2207 80.6832 102.094C81.5089 103.526 82.7017 104.807 84.1943 105.436C84.3785 105.514 84.5662 105.579 84.7557 105.635C85.6567 105.286 86.6269 105.445 87.5532 105.887L87.6727 105.947C88.2635 105.943 88.8529 105.924 89.4246 105.93C90.5369 105.941 91.072 107.194 90.6048 108.127C90.8697 108.642 91.0639 109.22 91.2975 109.724C91.7171 110.635 92.1571 111.539 92.5999 112.438C93.226 113.198 93.8235 113.987 94.2282 114.906C94.3953 115.283 94.5528 115.692 94.6737 116.101C95.0214 116.655 95.3745 117.208 95.7357 117.757C96.9064 119.531 98.1396 121.21 99.5072 122.822C100.329 123.789 101.274 124.653 102.145 125.581C102.408 125.618 102.666 125.808 102.748 126.082L102.82 126.344C103.099 126.68 103.368 127.025 103.609 127.392C104.145 128.208 103.998 129.036 103.527 129.632C104.273 134.567 103.765 139.817 102.768 144.603C102.123 147.696 101.369 150.785 100.359 153.768C99.8454 155.283 99.222 156.741 98.3623 158.073C97.8911 158.803 97.2772 159.652 96.5886 160.347C96.4841 161.156 96.3483 161.957 96.1527 162.743C93.8425 172.056 84.3872 174.89 76.4698 176.079C74.9415 176.31 73.4293 175.918 72.5969 174.407C72.4046 174.059 72.2755 173.683 72.2061 173.297C71.8612 173.199 71.5294 173.028 71.232 172.781C71.1823 173.366 71.125 173.951 71.0523 174.543C70.8713 176.023 68.9883 176.468 68.5162 174.907C66.5244 168.32 65.4424 161.375 64.0775 154.607C62.7155 147.853 61.1945 141.133 59.7871 134.39L58.0052 125.879C53.6571 105.037 49.5845 83.9303 50.5841 62.4953C51.1298 50.7947 53.1537 39.1245 57.4857 28.3119C61.0944 19.3045 67.1846 9.18503 77.023 7.34349C77.0906 7.33096 77.1509 7.33831 77.2071 7.35343C78.3755 5.74187 79.7714 4.32269 81.431 3.18261ZM87.3671 116.471C88.1602 119.263 88.7266 122.125 89.0349 125.047C89.5482 129.914 89.2943 134.901 89.0715 139.783C88.8651 144.267 88.3789 148.79 87.5504 153.194C86.7546 157.422 85.5073 161.566 83.6535 165.413C83.3536 166.035 83.0314 166.641 82.6928 167.234C83.718 166.873 84.6437 166.451 85.6077 165.866C86.8212 165.129 87.9321 164.18 88.5392 163.178C89.5143 161.571 89.8416 159.786 89.9842 157.871C90.3509 152.946 90.5193 148.007 90.7542 143.073L90.8058 141.999C91.1834 134.29 91.6791 126.386 90.9389 118.67C89.8973 118.379 88.9575 117.809 88.0896 117.095C87.8506 116.897 87.6089 116.689 87.3671 116.471ZM79.4442 107.137C79.6631 109.483 79.8726 111.827 80.0623 114.174C80.7351 122.505 81.1508 130.882 80.7684 139.241C80.5693 143.594 80.1693 147.959 79.4777 152.256C79.1661 154.195 78.7893 156.13 78.3685 158.047L78.2265 158.685C77.7993 160.583 77.527 162.954 76.1589 164.336L76.1693 164.622C77.1296 163.075 78.0179 161.337 78.6541 159.719C81.4886 152.51 82.0064 144.66 82.5185 136.973C82.8342 132.235 83.068 127.49 83.4332 122.757L83.6107 120.479C83.8142 117.828 83.9894 115.197 83.9655 112.547C83.4195 111.684 82.9759 110.776 82.7005 109.844C82.6563 109.694 82.6258 109.543 82.6047 109.39C81.4501 108.81 80.363 108.018 79.4442 107.137ZM94.9589 123.634C95.5293 125.644 95.9938 127.68 96.3252 129.724C96.8521 132.978 97.1686 136.253 97.3071 139.539L97.5991 138.379C98.3311 135.475 99.1093 132.568 100.075 129.75C98.5484 128.616 97.2731 126.837 96.1636 125.349C95.7493 124.793 95.3473 124.22 94.9589 123.634ZM73.104 34.2331C72.5175 36.2413 72.0048 38.2723 71.4751 40.2969C70.2304 45.0527 69.4225 49.9388 68.8619 54.8341C66.6246 74.3792 68.488 94.0034 70.9248 113.421C71.9344 121.465 73.0323 129.499 73.9746 137.553C73.9994 136.764 74.0205 135.974 74.0339 135.183C74.3202 118.087 71.6074 101.23 70.5211 84.2212L70.4559 83.1843C69.9635 75.2318 69.6623 67.1306 70.5535 59.2071C71.012 55.1287 71.8199 51.1376 72.8951 47.1966L73.5351 44.8817C73.9676 43.3253 74.4275 41.7274 74.9731 40.1778C74.9001 40.0293 74.8307 39.8796 74.7661 39.7295C74.0112 37.9692 73.4859 36.1186 73.104 34.2331ZM74.9945 11.1938C69.3634 18.8949 64.638 27.0756 61.7792 36.4851C55.2361 58.02 56.6969 81.0473 60.4886 102.998C62.2752 113.34 64.5792 123.563 66.6816 133.834C64.4312 115.39 61.5292 96.9872 61.0673 78.3661C60.8151 68.203 61.3106 57.9927 63.0755 47.9866L63.18 47.3984C63.9363 43.1695 64.8734 38.6892 66.7914 34.8891C67.833 32.8255 68.9826 30.8998 70.3461 29.0567C70.9211 28.2794 71.5666 27.656 72.2515 27.086C72.0507 21.7771 72.8077 16.0202 74.9945 11.1938ZM84.1817 93.2474C86.9828 93.3641 89.7818 94.1921 91.9887 96.1246C93.7135 97.6338 91.2526 100.187 89.5414 98.7196C87.6795 97.124 86.01 95.311 84.0255 93.858C83.7892 93.6852 83.854 93.233 84.1817 93.2474ZM79.5344 85.3286C78.9114 85.6699 78.2925 85.739 77.587 85.5547C77.5612 85.5475 77.5363 85.5403 77.512 85.5316L77.3678 85.4827C77.4296 86.1912 77.4944 86.8997 77.5586 87.6082C78.1279 86.7571 78.7881 85.9881 79.5344 85.3286ZM76.7454 42.5702C76.4975 44.7677 76.3359 46.9757 76.2498 49.1872C76.1663 51.3416 76.1314 53.5026 76.1219 55.6644L76.1193 56.5909L76.1231 56.5734C77.0863 52.2143 78.4486 47.9244 80.1884 43.8193C79.8888 43.8722 79.5848 43.8638 79.2852 43.8255C78.6 43.7375 77.943 43.4152 77.355 43.038C77.1407 42.9005 76.9396 42.7401 76.7454 42.5702ZM105.321 17.1001C104.123 17.6741 102.968 18.334 101.766 18.8949C99.3836 20.0076 97.0518 21.301 94.8462 22.7696C92.6148 24.2557 90.4649 25.8205 88.4875 27.674C88.2553 27.8913 88.0258 28.111 87.7976 28.3305C87.7515 28.8097 87.7175 29.291 87.7026 29.7762C87.6944 30.037 87.6931 30.3097 87.6971 30.5899C91.4278 25.6877 95.9381 21.82 101.661 19.3869C102.653 18.9651 103.66 18.5896 104.679 18.2419C104.921 17.8852 105.138 17.5066 105.321 17.1001ZM105.215 12.3975C104.55 11.4607 102.638 11.5372 101.432 11.7459C99.4814 12.0837 97.7634 12.8069 96.0929 13.854C94.1169 15.0908 92.4138 16.7666 91.0802 18.7376C91.7361 18.3449 92.4043 17.9745 93.0874 17.6306L93.5546 17.3963C96.1405 16.1108 98.9409 14.8886 101.768 14.49C103.078 14.3056 104.485 14.0386 105.806 14.1891C105.741 13.5075 105.549 12.8684 105.215 12.3975Z" fill="black"/>
<path fill-rule="evenodd" clip-rule="evenodd" d="M155.203 114.681C153.383 113.752 151.301 113.815 149.393 114.43C147.133 115.157 145.133 116.671 143.352 118.279C142.658 118.909 141.998 119.617 141.335 120.33C140.493 121.237 139.649 122.152 138.71 122.893C139.02 120.098 140.868 117.26 142.456 115.208C144.405 112.689 147.117 110.648 150.049 109.662C153.173 108.609 156.394 109.188 158.923 110.895C161.429 112.587 163.254 115.388 163.622 118.814C163.699 119.534 163.383 120.193 162.912 120.691C162.363 121.275 161.592 121.658 160.873 121.658C160.14 121.658 159.489 121.344 159.007 120.844C158.5 120.32 158.179 119.594 158.132 118.803C158.101 117.962 157.916 117.225 157.25 116.337C156.803 115.741 155.959 115.067 155.203 114.681ZM159.83 85.2661C159.075 85.5585 158.198 86.2612 157.942 87.0317C157.887 87.2001 157.855 87.3744 157.853 87.5501C157.607 87.0201 157.513 86.3951 157.544 85.7774C157.646 83.816 159.41 82.3918 160.914 81.5609C161.448 81.2642 161.996 81.0684 162.542 80.9647L164.477 80.5987L162.66 79.8027C160.984 79.0687 159.413 78.0593 158.012 76.8234C156.671 75.6436 155.434 74.1179 154.706 72.4343C154.379 71.6739 154.121 70.9303 153.94 70.1267L153.891 69.9009C153.803 69.4682 153.706 69.2475 153.596 69.0024C153.533 68.8586 153.463 68.704 153.389 68.4523C153.346 68.311 153.323 68.1926 153.363 68.1005C153.401 68.0113 153.492 67.973 153.581 67.9371C154.175 67.699 155.131 67.8613 155.536 68.0332C156.518 68.4492 157.38 69.356 158.21 70.2052C158.615 70.6197 159.011 71.0246 159.405 71.371C161.917 73.5811 165.055 74.8387 168.12 75.1453L168.305 75.1626C169.115 75.2333 169.866 75.572 170.4 76.1369C170.876 76.6421 171.17 77.3293 171.17 78.1524C171.17 78.9541 170.829 79.726 170.301 80.2863C169.797 80.8214 169.114 81.1678 168.374 81.1404C167.854 81.1202 167.336 81.0713 166.824 80.9978L164.916 80.7274L166.372 82.062C166.661 82.327 166.933 82.6309 167.177 82.9837C168.506 84.9018 169.075 87.8251 169.026 90.171C169.016 90.6188 168.899 91.0811 168.685 91.4785C168.496 91.8256 168.233 92.1266 167.892 92.3138C167.484 92.5384 167.139 92.6579 166.675 92.6666C166.17 92.6781 165.742 92.5082 165.39 92.2245C164.95 91.8688 164.628 91.346 164.406 90.7743C164.111 90.0154 164.093 89.2133 164.065 88.4112C164.044 87.8568 164.023 87.3024 163.936 86.7552C163.812 86.0567 163.513 85.1668 163.138 84.8845C162.583 84.4698 161.108 84.7895 160.191 85.1293L159.83 85.2661ZM151.946 92.2864C154.114 93.6832 157.414 96.9406 155.083 100.404C152.34 103.458 148.389 99.9575 146.443 98.3735C144.638 97.1466 142.611 100.303 144.285 101.736C158.351 112.783 164.059 92.6522 153.042 90.6447C151.829 90.423 151.379 91.8544 151.946 92.2864ZM136.579 87.8525C135.987 87.144 135.41 86.483 134.519 86.1071C133.465 85.6607 132.189 85.6132 131.093 85.9473C129.85 86.326 128.865 87.2001 128.136 88.3162C127.496 89.2969 127.055 90.4647 126.804 91.6153C126.334 91.0681 126.114 90.4359 126.008 89.7922C125.834 88.7324 125.958 87.6408 126.298 86.604C127.056 84.2927 128.882 82.2377 131.01 81.3535C133.439 80.3436 136.448 80.6807 138.68 82.1024C139.818 82.8281 141.132 84.0867 141.793 85.3194C142.244 86.1604 142.27 87.0317 141.983 87.7805C141.667 88.6042 140.985 89.2738 140.114 89.6093C139.702 89.7692 139.278 89.7562 138.875 89.6425C138.35 89.4956 137.861 89.1816 137.461 88.8159C137.128 88.512 136.851 88.1779 136.579 87.8525ZM140.211 73.2764C139.711 73.9844 138.976 74.3461 138.212 74.3841C138.133 74.388 138.054 74.3884 137.977 74.3854C137.927 74.4458 137.872 74.5123 137.807 74.5905C137.658 74.7711 137.56 74.8896 137.458 75.0046C137.09 75.4202 136.703 75.817 136.3 76.1944C135.403 77.0357 134.436 77.7736 133.39 78.3926C131.558 79.478 129.55 80.3246 127.484 80.7287C125.435 81.1289 123.411 81.2527 121.347 80.9388L120.847 80.8625C119.655 80.6771 118.091 80.4354 117.112 79.6521C117.498 79.5218 117.889 79.5154 118.269 79.4976C118.521 79.4858 118.769 79.4738 119.012 79.4502C120.168 79.3389 121.29 79.1356 122.409 78.8071C124.583 78.1689 126.552 77.2875 128.473 76.0245C130.354 74.7863 132.083 73.1013 133.46 71.2556L133.624 71.0318C133.695 70.9353 133.764 70.8394 133.832 70.7441C134.395 69.9634 134.913 69.2195 135.788 68.7241C136.482 68.3319 137.182 68.2257 137.857 68.3386C138.64 68.4697 139.382 68.8877 140.041 69.4725C140.529 69.905 140.754 70.5277 140.789 71.1663C140.832 71.9176 140.616 72.7003 140.211 73.2764Z" fill="black"/>
</svg>
