<svg width="85" height="85" viewBox="0 0 85 85" fill="none" xmlns="http://www.w3.org/2000/svg">
<g opacity="0.7">
<circle cx="42.5" cy="42.5" r="42.5" fill="#D2B48C"/>
</g>
<rect x="11" y="31" width="63.5" height="23" fill="white"/>
<path d="M45.754 41.069L41.8 44.6935L39.646 42.7245L38.8 43.5L41.8 46.25L46.6 41.85L45.754 41.069ZM43 38C39.688 38 37 40.464 37 43.5C37 46.536 39.688 49 43 49C46.312 49 49 46.536 49 43.5C49 40.464 46.312 38 43 38ZM43 47.9C40.348 47.9 38.2 45.931 38.2 43.5C38.2 41.069 40.348 39.1 43 39.1C45.652 39.1 47.8 41.069 47.8 43.5C47.8 45.931 45.652 47.9 43 47.9Z" fill="#964B00"/>
</svg>
