<svg width="59" height="59" viewBox="0 0 59 59" fill="none" xmlns="http://www.w3.org/2000/svg">
<g opacity="0.6">
<circle cx="29.5" cy="29.5" r="29.5" fill="#D2B48C"/>
<circle cx="29.5" cy="29.5" r="29.5" fill="#D2B48C"/>
<g clip-path="url(#clip0)">
<path d="M51.6251 18.4349C50.1014 19.1033 48.4779 19.5463 46.7852 19.7614C48.5265 18.7217 49.8556 17.088 50.4804 15.1187C48.8569 16.0867 47.0643 16.7704 45.154 17.152C43.6124 15.5105 41.4153 14.4939 39.0184 14.4939C34.3681 14.4939 30.6242 18.2685 30.6242 22.8958C30.6242 23.5616 30.6806 24.2018 30.8188 24.8112C23.8356 24.4706 17.6565 21.1237 13.5055 16.0252C12.7808 17.2826 12.3557 18.7217 12.3557 20.271C12.3557 23.18 13.8538 25.7587 16.0868 27.2516C14.7373 27.226 13.4133 26.8342 12.2917 26.2171C12.2917 26.2427 12.2917 26.276 12.2917 26.3093C12.2917 30.3911 15.2033 33.7816 19.0214 34.5626C18.3377 34.7495 17.5925 34.8392 16.8192 34.8392C16.2814 34.8392 15.7385 34.8084 15.2289 34.6958C16.3172 38.0222 19.4055 40.4677 23.0777 40.5471C20.2198 42.7827 16.5912 44.1296 12.663 44.1296C11.9742 44.1296 11.3135 44.0989 10.6528 44.0144C14.3736 46.4138 18.7833 47.7838 23.5386 47.7838C38.9954 47.7838 47.4459 34.98 47.4459 23.8817C47.4459 23.5103 47.4331 23.1518 47.4152 22.7959C49.0822 21.6128 50.483 20.1353 51.6251 18.4349Z" fill="black"/>
</g>
<g clip-path="url(#clip1)">
<path d="M51.6251 18.4349C50.1014 19.1033 48.4779 19.5463 46.7852 19.7614C48.5265 18.7217 49.8556 17.088 50.4804 15.1187C48.8569 16.0867 47.0643 16.7704 45.154 17.152C43.6124 15.5105 41.4153 14.4939 39.0184 14.4939C34.3681 14.4939 30.6242 18.2685 30.6242 22.8958C30.6242 23.5616 30.6806 24.2018 30.8188 24.8112C23.8356 24.4706 17.6565 21.1237 13.5055 16.0252C12.7808 17.2826 12.3557 18.7217 12.3557 20.271C12.3557 23.18 13.8538 25.7587 16.0868 27.2516C14.7373 27.226 13.4133 26.8342 12.2917 26.2171C12.2917 26.2427 12.2917 26.276 12.2917 26.3093C12.2917 30.3911 15.2033 33.7816 19.0214 34.5626C18.3377 34.7495 17.5925 34.8392 16.8192 34.8392C16.2814 34.8392 15.7385 34.8084 15.2289 34.6958C16.3172 38.0222 19.4055 40.4677 23.0777 40.5471C20.2198 42.7827 16.5912 44.1296 12.663 44.1296C11.9742 44.1296 11.3135 44.0989 10.6528 44.0144C14.3736 46.4138 18.7833 47.7838 23.5386 47.7838C38.9954 47.7838 47.4459 34.98 47.4459 23.8817C47.4459 23.5103 47.4331 23.1518 47.4152 22.7959C49.0822 21.6128 50.483 20.1353 51.6251 18.4349Z" fill="black"/>
</g>
</g>
<defs>
<clipPath id="clip0">
<rect width="40.9722" height="40.9722" fill="white" transform="translate(10.6528 10.6528)"/>
</clipPath>
<clipPath id="clip1">
<rect width="40.9722" height="40.9722" fill="white" transform="translate(10.6528 10.6528)"/>
</clipPath>
</defs>
</svg>
